<svg width="31" height="21" viewBox="0 0 31 21" fill="none" xmlns="http://www.w3.org/2000/svg">
<g filter="url(#filter0_d)">
<mask id="path-1-inside-1" fill="white">
<path d="M20.119 0L19.058 1.061L23.558 5.561H4V7.061H23.558L19.058 11.561L20.119 12.622L26.43 6.312L20.119 0.00199986V0Z"/>
</mask>
<path d="M20.119 0L19.058 1.061L23.558 5.561H4V7.061H23.558L19.058 11.561L20.119 12.622L26.43 6.312L20.119 0.00199986V0Z" fill="#404040"/>
<path d="M20.119 0H40.119V-48.2843L5.97686 -14.1421L20.119 0ZM19.058 1.061L4.91586 -13.0811L-9.22627 1.061L4.91586 15.2031L19.058 1.061ZM23.558 5.561V25.561H71.8423L37.7001 -8.58114L23.558 5.561ZM4 5.561V-14.439H-16V5.561H4ZM4 7.061H-16V27.061H4V7.061ZM23.558 7.061L37.7001 21.2031L71.8423 -12.939L23.558 -12.939V7.061ZM19.058 11.561L4.91587 -2.58114L-9.22627 11.561L4.91586 25.7031L19.058 11.561ZM20.119 12.622L5.97686 26.7641L20.1179 40.9052L34.26 26.7653L20.119 12.622ZM26.43 6.312L40.571 20.4553L54.7165 6.312L40.571 -7.83126L26.43 6.312ZM20.119 0.00199986H0.118999V8.2872L5.97799 14.1453L20.119 0.00199986ZM5.97686 -14.1421L4.91586 -13.0811L33.2001 15.2031L34.2611 14.1421L5.97686 -14.1421ZM4.91586 15.2031L9.41587 19.7031L37.7001 -8.58114L33.2001 -13.0811L4.91586 15.2031ZM23.558 -14.439H4V25.561H23.558V-14.439ZM-16 5.561V7.061H24V5.561H-16ZM4 27.061H23.558V-12.939H4V27.061ZM9.41587 -7.08114L4.91587 -2.58114L33.2001 25.7031L37.7001 21.2031L9.41587 -7.08114ZM4.91586 25.7031L5.97686 26.7641L34.2611 -1.52013L33.2001 -2.58113L4.91586 25.7031ZM34.26 26.7653L40.571 20.4553L12.289 -7.83126L5.97799 -1.52126L34.26 26.7653ZM40.571 -7.83126L34.26 -14.1413L5.97799 14.1453L12.289 20.4553L40.571 -7.83126ZM40.119 0.00199986V0H0.118999V0.00199986H40.119Z" fill="black" mask="url(#path-1-inside-1)"/>
</g>
<defs>
<filter id="filter0_d" x="0" y="0" width="30.43" height="20.622" filterUnits="userSpaceOnUse" color-interpolation-filters="sRGB">
<feFlood flood-opacity="0" result="BackgroundImageFix"/>
<feColorMatrix in="SourceAlpha" type="matrix" values="0 0 0 0 0 0 0 0 0 0 0 0 0 0 0 0 0 0 127 0"/>
<feOffset dy="4"/>
<feGaussianBlur stdDeviation="2"/>
<feColorMatrix type="matrix" values="0 0 0 0 0 0 0 0 0 0 0 0 0 0 0 0 0 0 0.25 0"/>
<feBlend mode="normal" in2="BackgroundImageFix" result="effect1_dropShadow"/>
<feBlend mode="normal" in="SourceGraphic" in2="effect1_dropShadow" result="shape"/>
</filter>
</defs>
</svg>
