<svg width="35" height="31" viewBox="0 0 35 31" fill="none" xmlns="http://www.w3.org/2000/svg">
<path d="M27.1278 5.59758L27.4608 5.20111L27.053 4.88211C24.6514 3.00391 21.605 1.88462 18.2757 1.88462C17.1085 1.88462 15.9773 2.0395 14.9067 2.29303L14.1459 2.47318L14.6285 3.08824C15.7641 4.5353 17.3952 6.72052 19.3492 10.144L19.5559 10.5062L19.9493 10.3678C23.6686 9.05973 25.9018 7.05689 27.1278 5.59758ZM12.9736 3.30149L12.732 3.00013L12.3794 3.15768C8.68024 4.81046 5.86798 7.97211 4.75665 11.8448L4.57915 12.4633L5.22236 12.4825C7.25222 12.543 12.1015 12.4524 17.4756 11.0887L18.1202 10.9252L17.7841 10.3514C15.6993 6.7926 13.9456 4.51438 12.9736 3.30149ZM28.8879 6.59816L28.5091 6.17186L28.136 6.60318C26.7915 8.15757 24.4515 10.1831 20.7404 11.5586L20.2098 11.7552L20.4703 12.2576C21.272 13.8034 22.0493 15.45 22.7574 17.2276L22.9033 17.5938L23.2934 17.5374C25.9823 17.1485 28.468 17.1485 30.3453 17.2877C30.8007 17.3235 31.0939 17.3636 31.4372 17.4106C31.5097 17.4205 31.5844 17.4307 31.6633 17.4413L32.1691 17.5089L32.2264 17.0018C32.2821 16.5088 32.3142 16.013 32.3142 15.5C32.3142 12.0902 31.0096 8.98578 28.8879 6.59816ZM18.9643 12.5322L18.778 12.1784L18.3919 12.2823C12.0903 13.9781 6.53824 13.9263 4.8102 13.8602L4.3314 13.8419L4.29273 14.3195L4.29048 14.3473C4.26065 14.7155 4.22956 15.0992 4.22956 15.5074C4.22956 19.607 6.10249 23.2602 9.04464 25.7551L9.40624 26.0618L9.73165 25.717C10.4625 24.9426 11.4423 23.9568 12.6333 22.9279L12.6354 22.9261C14.8779 20.968 17.7577 18.9012 20.8908 18L21.4278 17.8456L21.2149 17.329C20.5083 15.6139 19.7477 14.0199 18.9643 12.5322ZM26.6503 18.5996L26.6452 18.5998C25.816 18.6377 24.9334 18.7134 24.0361 18.8268L23.4265 18.9038L23.6258 19.485C24.3797 21.6835 25.003 24.0114 25.4056 26.432L25.5318 27.191L26.1741 26.7674C28.7975 25.037 30.7875 22.4618 31.7153 19.432L31.8927 18.8528L31.2904 18.7884C30.0941 18.6605 28.5758 18.5314 26.6503 18.5996ZM22.108 19.5867L21.9518 19.1497L21.5044 19.273C18.7214 20.04 15.8158 22.0265 13.6176 23.9376C12.5545 24.8541 11.6961 25.7237 11.0086 26.4346L10.5612 26.8973L11.1201 27.2164C13.2152 28.4126 15.6463 29.1154 18.268 29.1154C20.2356 29.1154 22.0921 28.7216 23.7882 28.0274L24.149 27.8797L24.0938 27.4939C23.6961 24.7141 22.9948 22.0658 22.108 19.5867ZM2.77571 15.5C2.77571 7.25108 9.72139 0.5 18.2757 0.5C26.83 0.5 33.7757 7.25108 33.7757 15.5C33.7757 23.7489 26.83 30.5 18.2757 30.5C9.72139 30.5 2.77571 23.7489 2.77571 15.5Z" fill="#353232" stroke="#31353B"/>
</svg>
