<svg width="32" height="31" viewBox="0 0 32 31" fill="none" xmlns="http://www.w3.org/2000/svg">
<path d="M16.0018 1.33215e-06C7.16076 -0.00355616 0 7.11855 0 15.9091C0 22.8605 4.4795 28.7694 10.7179 30.9395C11.558 31.1494 11.4293 30.5553 11.4293 30.1498V27.3927C6.57804 27.9583 6.38141 24.7637 6.05608 24.2301C5.39828 23.113 3.84315 22.8284 4.3079 22.2948C5.41258 21.7292 6.53871 22.4371 7.84359 24.3546C8.7874 25.7456 10.6285 25.5108 11.5616 25.2795C11.7654 24.4435 12.2015 23.6965 12.8021 23.1166C7.77567 22.2201 5.68071 19.1678 5.68071 15.5391C5.68071 13.7782 6.26343 12.1595 7.40744 10.8539C6.67814 8.70163 7.47537 6.85885 7.58262 6.58492C9.6597 6.39993 11.819 8.06484 11.987 8.19647C13.1668 7.87985 14.5146 7.71265 16.0232 7.71265C17.539 7.71265 18.8904 7.88696 20.0809 8.20714C20.4849 7.90119 22.4869 6.47108 24.4174 6.6454C24.5211 6.91933 25.3004 8.71942 24.614 10.8432C25.7723 12.1524 26.3622 13.7853 26.3622 15.5498C26.3622 19.1856 24.2529 22.2414 19.2122 23.1237C19.6439 23.5462 19.9867 24.0501 20.2206 24.606C20.4545 25.1618 20.5747 25.7584 20.5742 26.361V30.3632C20.6028 30.6834 20.5742 31 21.1105 31C27.4419 28.8762 32 22.9245 32 15.9127C32 7.11854 24.8357 1.33215e-06 16.0018 1.33215e-06V1.33215e-06Z" fill="#31353B"/>
</svg>
