<svg width="32" height="31" viewBox="0 0 32 31" fill="none" xmlns="http://www.w3.org/2000/svg">
<path d="M16.0002 31L10.1082 11.9333H21.8921L16.0002 31ZM16.0002 31L1.84997 11.9333H10.1082L16.0002 31ZM1.84997 11.9333L16.0002 31L0.501878 19.161C0.293654 19.0015 0.138758 18.7769 0.0593791 18.5192C-0.0199995 18.2616 -0.0197875 17.9841 0.0599849 17.7266L1.84997 11.9333ZM1.84997 11.9333L5.39953 0.447852C5.43876 0.318612 5.51605 0.205833 5.62023 0.125809C5.72442 0.0457841 5.85009 0.00265646 5.97911 0.00265646C6.10813 0.00265646 6.2338 0.0457841 6.33798 0.125809C6.44216 0.205833 6.51946 0.318612 6.55869 0.447852L10.1082 11.9333H1.84997ZM16.0002 31L21.8921 11.9333H30.1487L16.0002 31ZM30.1487 11.9333L31.9403 17.7266C32.0199 17.9843 32.0199 18.2619 31.9402 18.5195C31.8605 18.7772 31.7053 19.0018 31.4968 19.161L16.0002 31L30.1487 11.9333ZM30.1487 11.9333H21.8921L25.44 0.447852C25.4788 0.317979 25.5561 0.20452 25.6605 0.123975C25.7648 0.0434303 25.8909 0 26.0204 0C26.1499 0 26.276 0.0434303 26.3803 0.123975C26.4847 0.20452 26.5619 0.317979 26.6008 0.447852L30.1487 11.9333Z" fill="#353232"/>
</svg>
