<svg width="31" height="31" viewBox="0 0 31 31" fill="none" xmlns="http://www.w3.org/2000/svg">
<path d="M28.7346 0H2.26538C0.953846 0 0 0.953846 0 2.26538V28.7346C0 29.9269 1.07308 31 2.26538 31H28.7346C30.0462 31 31 30.0461 31 28.7346V2.26538C31 0.953846 29.9269 0 28.7346 0ZM9.53846 26.2308H4.76923V11.9231H9.53846V26.2308ZM7.15385 10.0154C5.60385 10.0154 4.29231 8.70385 4.29231 7.15385C4.29231 5.60385 5.60385 4.29231 7.15385 4.29231C8.70385 4.29231 10.0154 5.60385 10.0154 7.15385C10.0154 8.70385 8.70385 10.0154 7.15385 10.0154ZM26.2308 26.2308H21.4615V19.0769C21.4615 17.1692 20.9846 15.2615 19.0769 15.2615C17.1692 15.2615 16.6923 17.1692 16.6923 19.0769V26.2308H11.9231V11.9231H16.6923V13.5923H16.9308C17.5269 12.4 19.0769 11.4462 20.8654 11.4462C25.2769 11.4462 26.2308 14.3077 26.2308 17.8846V26.2308Z" fill="#353232"/>
</svg>
