<svg width="31" height="31" viewBox="0 0 31 31" fill="none" xmlns="http://www.w3.org/2000/svg">
<path d="M29.76 0H1.24C0.554125 0 0 0.554125 0 1.24V29.76C0 30.4459 0.554125 31 1.24 31H29.76C30.4459 31 31 30.4459 31 29.76V1.24C31 0.554125 30.4459 0 29.76 0ZM25.42 7.97087L23.839 9.486C23.6995 9.59062 23.6336 9.76112 23.6607 9.92775V21.0761C23.6336 21.2466 23.6995 21.4171 23.839 21.5179L25.389 23.033V23.3701H17.608V23.0485L19.2084 21.4946C19.3673 21.3357 19.3673 21.2892 19.3673 21.0529V12.0319L14.911 23.3314H14.3104L9.12562 12.0319V19.6075C9.07912 19.9252 9.1915 20.2469 9.41625 20.4755L11.501 22.9981V23.3352H5.58V22.9981L7.66475 20.4755C7.77459 20.362 7.85633 20.2244 7.90344 20.0737C7.95054 19.923 7.96169 19.7633 7.936 19.6075V10.85C7.96312 10.6059 7.87012 10.3695 7.68412 10.2029L5.83187 7.97087V7.63375H11.5863L16.027 17.3794L19.9369 7.6415H25.42V7.97087Z" fill="#353232"/>
</svg>
