<svg width="24" height="25" viewBox="0 0 24 25" xmlns="http://www.w3.org/2000/svg">
<path d="M15.8227 8.19453C15.1287 7.57706 14.2953 7.13702 13.394 6.91211C12.4928 6.68719 11.5504 6.68411 10.6477 6.90313C10.807 7.11641 11.8547 8.54141 12.7992 10.2781C14.85 9.50938 15.7172 8.34219 15.8227 8.19453ZM12.9844 13.4562C9.73359 14.5883 8.56406 16.8453 8.46094 17.0563C9.43828 17.818 10.6664 18.2727 12 18.2727C12.7992 18.2727 13.5609 18.1109 14.2523 17.8156C14.1656 17.3094 13.8328 15.5469 13.0219 13.4422L12.9844 13.4562ZM14.1023 13.1773C14.857 15.2492 15.1641 16.9367 15.2227 17.2883C16.5164 16.4141 17.4375 15.0289 17.693 13.4234C17.4961 13.3625 15.9094 12.8891 14.1023 13.1773ZM12 2C6.20156 2 1.5 6.70156 1.5 12.5C1.5 18.2984 6.20156 23 12 23C17.7984 23 22.5 18.2984 22.5 12.5C22.5 6.70156 17.7984 2 12 2ZM12 19.25C8.27812 19.25 5.25 16.2219 5.25 12.5C5.25 8.77812 8.27812 5.75 12 5.75C15.7219 5.75 18.75 8.77812 18.75 12.5C18.75 16.2219 15.7219 19.25 12 19.25ZM13.2445 11.1359C13.3781 11.4102 13.507 11.6891 13.6266 11.9703C13.6688 12.0687 13.7109 12.1672 13.7508 12.268C15.668 12.0266 17.5758 12.4133 17.7656 12.4531C17.7539 11.0914 17.2664 9.84219 16.4648 8.86016C16.3406 9.02656 15.375 10.2664 13.2445 11.1359ZM11.6859 10.625C10.7297 8.92578 9.70078 7.49844 9.54844 7.28984C7.93594 8.05156 6.72891 9.5375 6.35625 11.3258C6.61406 11.3305 8.99063 11.3422 11.6859 10.625ZM12.4031 12.5586C12.4781 12.5352 12.5531 12.5117 12.6305 12.4906C12.4852 12.1625 12.3281 11.8344 12.1641 11.5133C9.28594 12.3758 6.48984 12.3383 6.23906 12.3336C6.23672 12.3922 6.23672 12.4508 6.23672 12.5094C6.23672 13.9906 6.79687 15.343 7.71797 16.3648C7.84687 16.1398 9.42891 13.5195 12.4031 12.5586Z"/>
</svg>
