<svg width="24" height="25" viewBox="0 0 24 25" xmlns="http://www.w3.org/2000/svg">
<path d="M11.9906 2.28809C6.19453 2.28574 1.5 6.97793 1.5 12.7693C1.5 17.349 4.43672 21.242 8.52656 22.6717C9.07734 22.81 8.99297 22.4186 8.99297 22.1514V20.335C5.8125 20.7076 5.68359 18.6029 5.47031 18.2514C5.03906 17.5154 4.01953 17.3279 4.32422 16.9764C5.04844 16.6037 5.78672 17.0701 6.64219 18.3334C7.26094 19.2498 8.46797 19.0951 9.07969 18.9428C9.21328 18.392 9.49922 17.8998 9.89297 17.5178C6.59766 16.9271 5.22422 14.9162 5.22422 12.5256C5.22422 11.3654 5.60625 10.299 6.35625 9.43887C5.87812 8.0209 6.40078 6.80684 6.47109 6.62637C7.83281 6.50449 9.24844 7.60137 9.35859 7.68809C10.132 7.47949 11.0156 7.36934 12.0047 7.36934C12.9984 7.36934 13.8844 7.48418 14.6648 7.69512C14.9297 7.49356 16.2422 6.55137 17.5078 6.66621C17.5758 6.84668 18.0867 8.03262 17.6367 9.43184C18.3961 10.2943 18.7828 11.3701 18.7828 12.5326C18.7828 14.9279 17.4 16.9412 14.0953 17.5225C14.3784 17.8008 14.6031 18.1328 14.7564 18.499C14.9098 18.8652 14.9886 19.2583 14.9883 19.6553V22.292C15.007 22.5029 14.9883 22.7115 15.3398 22.7115C19.4906 21.3123 22.4789 17.3912 22.4789 12.7717C22.4789 6.97793 17.782 2.28809 11.9906 2.28809Z"/>
</svg>
