<svg width="22" height="14" viewBox="0 0 22 14" fill="none" xmlns="http://www.w3.org/2000/svg">
<path fill-rule="evenodd" clip-rule="evenodd" d="M20.2096 6.17685C20.2096 6.17685 20.2061 6.18278 20.1945 6.19398C20.203 6.18235 20.2096 6.17685 20.2096 6.17685ZM19.6831 6.50154C19.2977 6.30951 18.7433 6.10491 18.0143 5.91195C16.2142 5.43555 13.6499 5.10742 10.7619 5.07023C7.87397 5.03304 5.30206 5.29504 3.49037 5.72493C2.75656 5.89906 2.19711 6.08932 1.80686 6.27136C2.19229 6.46339 2.74666 6.66799 3.47574 6.86095C5.27577 7.33735 7.84007 7.66548 10.7281 7.70267C13.616 7.73985 16.1879 7.47786 17.9996 7.04796C18.7334 6.87384 19.2929 6.68358 19.6831 6.50154ZM1.28896 5.93322C1.28896 5.93322 1.29542 5.93889 1.30357 5.95074C1.29224 5.93923 1.28896 5.93322 1.28896 5.93322ZM1.28043 6.59605C1.28043 6.59605 1.28386 6.59012 1.29548 6.57891C1.28703 6.59055 1.28043 6.59605 1.28043 6.59605ZM20.1864 6.82216C20.1978 6.83366 20.201 6.83968 20.201 6.83968C20.201 6.83968 20.1946 6.83401 20.1864 6.82216ZM10.7103 9.08268C16.6445 9.15909 21.4708 8.01389 21.4899 6.5248C21.5091 5.03572 16.714 3.76663 10.7797 3.69022C4.84545 3.6138 0.0192314 4.759 5.73028e-05 6.24809C-0.0191167 7.73718 4.77601 9.00627 10.7103 9.08268Z" fill="#A9ACBB"/>
<path d="M4.94729 7.96218C4.74024 7.95805 4.57499 7.77505 4.58971 7.55409C4.64461 6.72992 4.81772 5.92071 5.10249 5.16102C5.43328 4.27856 5.90826 3.48021 6.5003 2.81157C7.09235 2.14292 7.78986 1.61706 8.55302 1.26402C9.31618 0.910979 10.13 0.737669 10.9481 0.753983C11.7662 0.770298 12.5725 0.975919 13.321 1.3591C14.0695 1.74229 14.7455 2.29554 15.3104 2.98726C15.8753 3.67898 16.3181 4.49563 16.6134 5.39057C16.8677 6.16101 17.0084 6.97648 17.0304 7.80218C17.0363 8.02356 16.8639 8.19982 16.6568 8.19569L4.94729 7.96218Z" fill="#A9ACBB"/>
<path d="M15.2249 11.4134C15.2292 11.8131 15.0088 12.1814 14.6619 12.3798C13.9886 12.765 12.7473 13.3296 11.3758 13.2375C9.32239 13.0996 7.70127 12.3405 7.75488 11.542C7.80819 10.7493 8.69449 10.4427 9.59934 10.3377C10.8923 10.1878 12.2032 10.0097 13.504 9.96318C14.9788 9.91047 15.2175 10.727 15.2249 11.4134Z" fill="#A9ACBB"/>
</svg>
