<svg width="30" height="30" viewBox="0 0 30 30" fill="none" xmlns="http://www.w3.org/2000/svg">
<path d="M18.7138 6.03823C16.3369 5.05366 13.6661 5.05366 11.2892 6.03823C8.91223 7.02279 7.02377 8.91129 6.0392 11.2882C5.05464 13.6652 5.05464 16.3359 6.0392 18.7129C7.02377 21.0898 8.91223 22.9783 11.2892 23.9629C13.6661 24.9474 16.3369 24.9474 18.7138 23.9629C18.8143 23.9212 18.9139 23.878 19.0126 23.8332C19.6778 23.5311 19.3925 22.5574 18.6859 22.3714C18.3554 22.2843 18.0293 22.1747 17.7099 22.0424C15.8423 21.2688 14.3585 19.785 13.5849 17.9174C12.8113 16.0498 12.8113 13.9514 13.5849 12.0838C14.3585 10.2161 15.8423 8.73234 17.7099 7.95875C18.0293 7.82645 18.3554 7.7168 18.686 7.62973C19.3925 7.44369 19.6778 6.47 19.0126 6.1679C18.9139 6.12309 18.8143 6.07985 18.7138 6.03823Z" fill="#595959" stroke="#595959" stroke-linecap="round" stroke-linejoin="round"/>
</svg>
