<svg width="40" height="40" viewBox="0 0 40 40" fill="none" xmlns="http://www.w3.org/2000/svg">
<path d="M14.1305 11.9045L14.7109 12.7189C14.9286 12.5637 15.0751 12.3278 15.1177 12.0639C15.1604 11.8 15.0955 11.5299 14.9377 11.3141L14.1305 11.9045ZM12.3595 9.4828L13.1667 8.89245C12.8414 8.44765 12.2175 8.34985 11.7717 8.67375C11.3259 8.99765 11.2261 9.6212 11.5486 10.0681L12.3595 9.4828ZM14.1154 11.9155L13.3045 12.5007C13.461 12.7176 13.6979 12.8627 13.9621 12.9037C14.2264 12.9447 14.4961 12.8781 14.7109 12.7189L14.1154 11.9155ZM10.4933 16.901L11.4414 17.2188C11.5264 16.9653 11.5063 16.6884 11.3857 16.4498C11.265 16.2112 11.0539 16.0308 10.7993 15.949L10.4933 16.901ZM7.63698 15.9828L7.94303 15.0308C7.41838 14.8621 6.85618 15.1496 6.68593 15.6737C6.51563 16.1978 6.80143 16.7609 7.32498 16.9328L7.63698 15.9828ZM10.4875 16.9188L10.1755 17.8689C10.4296 17.9524 10.7064 17.9305 10.9443 17.8084C11.1822 17.6862 11.3612 17.4739 11.4414 17.2188L10.4875 16.9188ZM10.4875 23.0812L11.4414 22.7812C11.3612 22.5261 11.1822 22.3138 10.9443 22.1916C10.7064 22.0695 10.4296 22.0476 10.1755 22.1311L10.4875 23.0812ZM7.63698 24.0172L7.32498 23.0672C6.80143 23.2391 6.51563 23.8022 6.68593 24.3263C6.85618 24.8504 7.41838 25.1379 7.94303 24.9692L7.63698 24.0172ZM10.4933 23.099L10.7993 24.051C11.0539 23.9692 11.265 23.7888 11.3857 23.5502C11.5063 23.3116 11.5264 23.0347 11.4414 22.7812L10.4933 23.099ZM14.1154 28.0845L14.7108 27.2812C14.496 27.1219 14.2264 27.0553 13.9621 27.0963C13.6979 27.1373 13.461 27.2825 13.3045 27.4993L14.1154 28.0845ZM12.3595 30.5172L11.5486 29.9319C11.2261 30.3788 11.3259 31.0024 11.7717 31.3263C12.2175 31.6502 12.8414 31.5523 13.1667 31.1075L12.3595 30.5172ZM14.1305 28.0955L14.9377 28.6859C15.0955 28.4701 15.1604 28.2 15.1177 27.9361C15.0751 27.6722 14.9285 27.4363 14.7108 27.2812L14.1305 28.0955ZM19.9913 30L20.0008 29C19.7334 28.9974 19.4762 29.1021 19.2865 29.2906C19.0968 29.4791 18.9905 29.7357 18.9913 30.003L19.9913 30ZM20.0007 33L19.0007 33.0031C19.0024 33.5542 19.4496 34 20.0007 34C20.5518 34 20.999 33.5542 21.0007 33.0031L20.0007 33ZM20.0101 30L21.0101 30.0031C21.0109 29.7357 20.9046 29.4792 20.715 29.2907C20.5254 29.1023 20.2682 28.9975 20.0008 29L20.0101 30ZM25.871 28.0958L25.2909 27.2812C25.0731 27.4364 24.9265 27.6722 24.8839 27.9362C24.8412 28.2001 24.906 28.4702 25.0639 28.6861L25.871 28.0958ZM27.6419 30.5172L26.8347 31.1075C27.16 31.5523 27.7839 31.6502 28.2297 31.3263C28.6755 31.0024 28.7753 30.3788 28.4528 29.9319L27.6419 30.5172ZM25.8862 28.0847L26.697 27.4995C26.5406 27.2827 26.3038 27.1376 26.0397 27.0966C25.7755 27.0555 25.5058 27.1221 25.2909 27.2812L25.8862 28.0847ZM29.5086 23.0991L28.5605 22.7812C28.4754 23.0347 28.4955 23.3117 28.6161 23.5503C28.7368 23.789 28.9479 23.9693 29.2025 24.0511L29.5086 23.0991ZM32.3644 24.0172L32.0584 24.9692C32.583 25.1379 33.1452 24.8504 33.3155 24.3263C33.4858 23.8022 33.2 23.2391 32.6764 23.0672L32.3644 24.0172ZM29.5143 23.0814L29.8263 22.1313C29.5723 22.0479 29.2955 22.0696 29.0576 22.1917C28.8198 22.3138 28.6407 22.5262 28.5605 22.7812L29.5143 23.0814ZM29.5143 16.9186L28.5605 17.2188C28.6407 17.4739 28.8198 17.6862 29.0576 17.8083C29.2955 17.9304 29.5723 17.9521 29.8263 17.8687L29.5143 16.9186ZM32.3644 15.9828L32.6764 16.9328C33.2 16.7609 33.4858 16.1978 33.3155 15.6737C33.1452 15.1496 32.583 14.8621 32.0584 15.0308L32.3644 15.9828ZM29.5086 16.9009L29.2025 15.9488C28.948 16.0307 28.7368 16.211 28.6161 16.4496C28.4955 16.6883 28.4755 16.9653 28.5605 17.2188L29.5086 16.9009ZM25.8862 11.9152L25.291 12.7189C25.5059 12.878 25.7755 12.9445 26.0397 12.9034C26.3038 12.8624 26.5406 12.7173 26.697 12.5005L25.8862 11.9152ZM27.6419 9.4828L28.4528 10.0681C28.7753 9.6212 28.6755 8.99765 28.2297 8.67375C27.7839 8.34985 27.16 8.44765 26.8347 8.89245L27.6419 9.4828ZM25.871 11.9043L25.0639 11.3139C24.906 11.5298 24.8412 11.7999 24.8839 12.0639C24.9265 12.3279 25.0732 12.5638 25.291 12.7189L25.871 11.9043ZM20.0101 10L20.0009 11C20.2683 11.0025 20.5254 10.8978 20.715 10.7093C20.9046 10.5208 21.0109 10.2642 21.0101 9.9969L20.0101 10ZM20.0007 7L21.0007 6.9969C20.999 6.4458 20.5518 6 20.0007 6C19.4496 6 19.0024 6.4458 19.0007 6.9969L20.0007 7ZM19.9913 10L18.9913 9.99695C18.9905 10.2644 19.0968 10.5209 19.2865 10.7094C19.4762 10.8979 19.7335 11.0026 20.0009 11L19.9913 10ZM14.9377 11.3141L13.1667 8.89245L11.5523 10.0731L13.3234 12.4948L14.9377 11.3141ZM11.5486 10.0681L13.3045 12.5007L14.9262 11.3302L13.1703 8.8975L11.5486 10.0681ZM14.7109 12.7189L13.5502 11.0901C13.54 11.0973 13.5299 11.1047 13.5199 11.1122L14.7109 12.7189ZM10.7993 15.949L7.94303 15.0308L7.33093 16.9348L10.1872 17.8531L10.7993 15.949ZM7.32498 16.9328L10.1755 17.8689L10.7995 15.9688L7.94893 15.0327L7.32498 16.9328ZM11.4414 17.2188L9.54513 16.5832C9.54118 16.5951 9.53733 16.6069 9.53358 16.6188L11.4414 17.2188ZM10.1755 22.1311L7.32498 23.0672L7.94893 24.9673L10.7995 24.0312L10.1755 22.1311ZM7.94303 24.9692L10.7993 24.051L10.1872 22.1469L7.33093 23.0652L7.94303 24.9692ZM11.4414 22.7812L9.53358 23.3812C9.53733 23.3931 9.54118 23.405 9.54513 23.4168L11.4414 22.7812ZM13.3045 27.4993L11.5486 29.9319L13.1703 31.1025L14.9262 28.6698L13.3045 27.4993ZM13.1667 31.1075L14.9377 28.6859L13.3233 27.5052L11.5523 29.9269L13.1667 31.1075ZM14.7108 27.2812L13.5199 28.8879C13.5299 28.8953 13.54 28.9026 13.5501 28.9098L14.7108 27.2812ZM18.9913 30.003L19.0007 33.0031L21.0007 32.9969L20.9913 29.9968L18.9913 30.003ZM21.0007 33.0031L21.0101 30.0031L19.0101 29.9968L19.0007 32.9969L21.0007 33.0031ZM20.0008 29L19.9819 30.9999C19.9942 31.0001 20.0067 31.0001 20.0192 30.9999L20.0008 29ZM25.0639 28.6861L26.8347 31.1075L28.4491 29.9269L26.6782 27.5054L25.0639 28.6861ZM28.4528 29.9319L26.697 27.4995L25.0753 28.67L26.8311 31.1025L28.4528 29.9319ZM25.2909 27.2812L26.4512 28.9103C26.4613 28.903 26.4714 28.8957 26.4813 28.8883L25.2909 27.2812ZM29.2025 24.0511L32.0584 24.9692L32.6705 23.0652L29.8146 22.1471L29.2025 24.0511ZM32.6764 23.0672L29.8263 22.1313L29.2024 24.0314L32.0525 24.9673L32.6764 23.0672ZM28.5605 22.7812L30.4567 23.4171C30.4606 23.4054 30.4644 23.3935 30.4682 23.3815L28.5605 22.7812ZM29.8263 17.8687L32.6764 16.9328L32.0525 15.0327L29.2024 15.9686L29.8263 17.8687ZM32.0584 15.0308L29.2025 15.9488L29.8146 17.8529L32.6705 16.9348L32.0584 15.0308ZM28.5605 17.2188L30.4682 16.6185C30.4644 16.6064 30.4606 16.5946 30.4567 16.583L28.5605 17.2188ZM26.697 12.5005L28.4528 10.0681L26.8311 8.8975L25.0753 11.33L26.697 12.5005ZM26.8347 8.89245L25.0639 11.3139L26.6782 12.4945L28.4491 10.0731L26.8347 8.89245ZM25.291 12.7189L26.4813 11.1117C26.4713 11.1042 26.4612 11.0969 26.451 11.0897L25.291 12.7189ZM21.0101 9.9969L21.0007 6.9969L19.0007 7.0031L19.0101 10.0031L21.0101 9.9969ZM19.0007 6.9969L18.9913 9.99695L20.9913 10.0031L21.0007 7.0031L19.0007 6.9969ZM20.0009 11L20.0192 9.0001C20.0067 8.99995 19.9942 8.99995 19.9818 9.0001L20.0009 11Z" fill="#D9D9D9"/>
<path d="M18.236 14.5728C19.3821 14.2004 20.6166 14.2004 21.7627 14.5728C22.9088 14.9452 23.9075 15.6708 24.6159 16.6457C25.3242 17.6206 25.7057 18.7948 25.7057 19.9998C25.7057 21.2049 25.3242 22.379 24.6159 23.3539C23.9075 24.3288 22.9088 25.0545 21.7627 25.4269C20.6166 25.7993 19.3821 25.7993 18.236 25.4269C17.0899 25.0545 16.0911 24.3288 15.3828 23.3539C14.6745 22.379 14.293 21.2049 14.293 19.9998C14.293 18.7948 14.6745 17.6206 15.3828 16.6457C16.0911 15.6708 17.0899 14.9452 18.236 14.5728Z" fill="#D9D9D9" stroke="#D9D9D9" stroke-width="4" stroke-linecap="square" stroke-linejoin="round"/>
</svg>
